<?xml version="1.0" encoding="utf-8"?>
<!-- Generator: Adobe Illustrator 22.0.1, SVG Export Plug-In . SVG Version: 6.00 Build 0)  -->
<svg version="1.1" id="icon" xmlns="http://www.w3.org/2000/svg" xmlns:xlink="http://www.w3.org/1999/xlink" x="0px" y="0px"
	 viewBox="0 0 16 16" style="enable-background:new 0 0 16 16;" xml:space="preserve">
<style type="text/css">
	.st0{fill:#3F3F3F;}
	.st1{fill:#636363;}
	.st2{fill:#4C4C4C;}
	.st3{fill:#FFFFFF;}
</style>
<g>
	<polygon class="st0" points="11.3,0 4.7,0 0,4.1 0,11.9 4.7,16 11.3,16 16,11.9 16,4.1 	"/>
	<polygon class="st1" points="10.8,0 4.5,0 0,3.9 0,11.4 4.5,15.3 10.8,15.3 15.3,11.4 15.3,3.9 	"/>
	<g>
		<path class="st2" d="M15.3,11.4V9.1L9.7,4.4C9.1,4.9,8.9,5.4,8.8,6L7,4.3L6,6.7l2.2,1.9c0,0-0.1,0.1-0.2,0.1L5,6.3L4.6,8.1
			l1.7,1.3c-0.4,0.5-1,1.3-1,1.3l5.4,4.7h0.1L15.3,11.4z"/>
	</g>
	<g>
		<path class="st3" d="M10.4,9.9c0,0.3-0.1,0.6-0.3,0.8c-0.2,0.3-0.5,0.4-0.8,0.6c-0.3,0.1-0.5,0.2-0.8,0.1c-0.3,0-0.5-0.1-0.8-0.2
			c-0.1,0-0.1,0-0.2,0c-0.3,0.1-0.5,0.2-0.8,0.2s-0.6-0.1-0.9-0.3c-0.2-0.2-0.4-0.4-0.6-0.6C5.1,10.3,5,10.1,5,9.8
			c0-0.2,0.1-0.4,0.1-0.6C5.2,9,5.3,8.9,5.4,8.7c0.2-0.3,0.5-0.5,0.7-0.8c0.1-0.1,0.2-0.3,0.3-0.4C6.8,7.2,7.2,7.1,7.6,7
			c0.5-0.1,0.9,0.1,1.3,0.4C9,7.5,9.1,7.6,9.2,7.8c0.2,0.3,0.4,0.6,0.6,0.9C9.9,8.8,10,9,10.2,9.2C10.3,9.4,10.4,9.7,10.4,9.9z"/>
		<path class="st3" d="M5.5,5.2c0-0.3,0.1-0.6,0.2-0.9C5.9,4.2,6,4,6.2,4c0.3-0.1,0.5,0,0.7,0.2c0.3,0.3,0.5,0.7,0.6,1.1
			c0,0.2,0.1,0.3,0.1,0.5c0,0.3-0.1,0.7-0.2,1C7.2,6.8,7,6.9,6.9,7C6.6,7.1,6.4,7,6.2,6.8C5.9,6.6,5.8,6.3,5.7,6
			C5.6,5.7,5.5,5.5,5.5,5.2z"/>
		<path class="st3" d="M9.9,5.2c0,0.4-0.1,0.8-0.3,1.1C9.5,6.6,9.4,6.8,9.2,6.9C8.9,7.1,8.5,7,8.3,6.8C8.1,6.5,8,6.3,8,6
			c0-0.4,0-0.7,0.1-1.1c0.1-0.3,0.2-0.6,0.4-0.8c0.1,0,0.2,0,0.3-0.1c0.3-0.2,0.7-0.1,0.9,0.2C9.8,4.4,9.9,4.6,10,4.9
			C9.9,5,9.9,5.1,9.9,5.2z"/>
		<path class="st3" d="M5.6,7.5c0,0.2,0,0.3-0.1,0.4C5.4,8.2,5.1,8.3,4.8,8.2C4.6,8.1,4.4,8,4.3,7.8c-0.2-0.3-0.4-0.6-0.4-1
			c0-0.2,0-0.4,0.1-0.5C4.1,6.1,4.4,6,4.6,6.1c0.2,0,0.3,0.1,0.4,0.2c0.3,0.3,0.4,0.6,0.5,0.9C5.6,7.3,5.6,7.4,5.6,7.5z"/>
		<path class="st3" d="M9.9,7.5c0-0.4,0.1-0.7,0.3-1c0.1-0.2,0.3-0.3,0.5-0.4C10.8,6,10.9,6,11.1,6c0.1,0,0.3,0.1,0.3,0.2
			c0.1,0.2,0.1,0.4,0.1,0.7c-0.1,0.4-0.3,0.8-0.6,1c-0.1,0.1-0.3,0.2-0.4,0.2c-0.3,0.2-0.5,0-0.6-0.2c0-0.1,0-0.1-0.1-0.2
			C9.9,7.7,9.9,7.6,9.9,7.5z"/>
	</g>
</g>
</svg>
