<?xml version="1.0" encoding="utf-8"?>
<!-- Generator: Adobe Illustrator 21.1.0, SVG Export Plug-In . SVG Version: 6.00 Build 0)  -->
<svg version="1.1" id="icon" xmlns="http://www.w3.org/2000/svg" xmlns:xlink="http://www.w3.org/1999/xlink" x="0px" y="0px"
	 viewBox="0 0 256 256" style="enable-background:new 0 0 256 256;" xml:space="preserve">
<style type="text/css">
	.st0{fill:#192FB2;}
	.st1{fill:#2432F5;}
	.st2{fill:#1E3CBC;}
	.st3{fill:#E2F9FF;}
</style>
<g>
	<polygon class="st0" points="181,0 75,0 0,65 0,191 75,256 181,256 256,191 256,65 	"/>
	<polygon class="st1" points="173.2,0 71.8,0 0,62.2 0,182.8 71.8,245 173.2,245 245,182.8 245,62.2 	"/>
	<g>
		<path class="st2" d="M245,182.8v-36.7l-89.4-76.3c-10.2,7.9-13.3,16.6-14,25.2L112,69.4l-15.3,38l35.6,30.1
			c-1.1,0.6-2.4,1.2-3.7,1.8L79.7,100L73,129l27.9,21.3c-6.8,7.9-15.6,20-15.6,20l86.2,74.7h1.7L245,182.8z"/>
	</g>
	<g>
		<path class="st3" d="M165.7,159c0.1,5.2-2,9.6-5.3,13.5c-3.3,4-7.5,6.8-12,9.3c-4,2.3-8.4,2.7-12.9,2.2c-4.3-0.5-8.4-1.9-12.1-3.9
			c-1.1-0.6-2-0.5-3.2,0c-4.1,1.7-8.3,2.8-12.7,2.9c-5.3,0.1-10.2-1.4-14.3-4.7c-3.4-2.7-6.6-5.6-9-9.2c-2.5-3.7-4.1-7.7-4.2-12.1
			c-0.1-3.3,0.8-6.5,2.2-9.5c1.4-2.7,3.2-5.1,5.2-7.5c3.6-4.3,7.3-8.7,10.9-13.1c1.8-2.1,3.4-4.3,5.3-6.3c4.8-5.1,10.9-7.7,17.8-8.6
			c7.6-1,14.4,1.1,20.3,5.7c2.4,1.9,4.5,4.2,6.1,6.9c3,4.8,6.1,9.4,9.2,14.1c1.8,2.8,3.7,5.6,5.4,8.5
			C164.4,150.8,165.8,154.7,165.7,159z"/>
		<path class="st3" d="M88.7,83.7c0.1-4.9,0.9-9.7,3.4-14.1c1.6-2.9,3.9-5.3,7.1-6.2c4.1-1.2,7.6,0.2,10.7,2.9
			c5.2,4.5,7.7,10.4,9.1,16.9c0.5,2.5,0.9,5,0.9,7.5c-0.1,5.4-0.8,10.7-3.8,15.4c-1.5,2.5-3.5,4.5-6.3,5.5c-4.1,1.5-7.6,0-10.8-2.5
			c-4.3-3.4-6.7-8.2-8.4-13.3C89.3,91.9,88.7,87.9,88.7,83.7z"/>
		<path class="st3" d="M159,83.8c0,6.3-1.5,12.2-4.4,17.8c-1.9,3.6-4.4,6.8-8.1,8.9c-4.6,2.7-10.2,1.6-13.6-2.5
			c-2.8-3.6-4.2-7.6-4.8-12.1c-0.8-5.7-0.2-11.4,1.6-16.9c1.5-4.6,3.6-8.8,7.2-12.1c1-0.9,2.1-1.8,3.3-2.4c5.2-3,10.5-1.6,14,3.1
			c2.4,3.2,3.7,6.8,4.2,10.7C158.8,80.1,158.9,82,159,83.8z"/>
		<path class="st3" d="M89,119.7c-0.1,2.8-0.4,5.1-1.4,7.2c-1.8,3.8-5.6,6.2-10.5,4.4c-3.4-1.3-5.9-3.6-8.1-6.3
			c-3.8-4.7-5.9-10.1-6.4-16.1c-0.2-2.9,0.2-5.7,1.7-8.3c2-3.6,5.9-5.2,10-3.6c2.5,0.9,4.6,2.4,6.4,4.3c4,4.2,6.6,9.2,7.6,14.9
			C88.8,117.5,88.9,118.9,89,119.7z"/>
		<path class="st3" d="M157.6,120.7c0.3-6,1.9-11.2,5.2-15.9c2-2.8,4.3-5.4,7.5-7c2-1.1,4.2-1.9,6.6-1.3c2.4,0.5,4.1,1.8,5.2,3.8
			c2,3.5,2.2,7.2,1.6,11c-1.1,6.6-4,12.2-9,16.8c-1.9,1.8-4.2,3-6.8,3.6c-4.1,0.9-7.5-1.8-8.9-4.8c-0.4-0.9-0.7-1.9-0.9-2.9
			C157.8,122.8,157.7,121.6,157.6,120.7z"/>
	</g>
</g>
</svg>
